Patient4_TMGait_0pt4_02_right_22_EMG.mot
version=1
nRows=26
nColumns=33
inDegrees=no
endheader
time	1LAddLong	2LGlutMax	3LGlutMed	4LIliopsoas	5LSemiMemb	6LBicFemLong	7LRecFem	8LVastMed	9LVastLat	10LGasMed	11LTibAnt	12lTibPost	13LPeroneusLong	14LSol	15LExtDigLong	16LFlexDigLong	17RAddLong	18RGlutMax	19RGlutMed	20RIliopsoas	21RSemiMemb	22RBicFemLong	23RRecFem	24RVastMed	25RVastLat	26RGasMed	27RTibAnt	28RTibPost	29RPeroneusLong	30RSol	31RExtDigLong	32RFlexDigLong
29.78	-0.005188	0.059204	0.028229	0.011749	-0.15564	0.064545	-0.012207	0.031433	0.18814	0.030823	0.005493	0.006409	-0.056305	-0.027008	0.004883	0.007019	0.051422	0.1297	-0.086517	0.12116	0.12665	-0.085144	-0.2417	-0.032196	-0.015106	-0.020752	0.26184	-0.016327	-0.11887	0.15503	-0.015869	-0.012512
29.781	0.019684	0.058899	-0.009003	-0.001526	-0.1001	-0.089722	-0.072021	0.012512	0.15579	0.009918	0.01236	0.005035	-0.024261	-0.006409	-0.006714	0.002747	0.078583	0.1178	-0.005646	0.066223	0.088806	-0.14572	-0.25955	-0.04776	-0.013428	-0.055695	0.61249	-0.016174	-0.35446	0.20447	-0.011902	-0.009155
29.782	0.04837	0.033875	-0.006561	-0.005188	0.069885	-0.38788	-0.1416	-0.00412	0.081177	0.006714	-0.004272	0.002289	0.014191	0.00885	0.001221	-0.004578	0.09491	0.063629	-0.041656	0.005341	0.015564	-0.21683	-0.24017	-0.033264	0.00824	-0.078583	0.62241	0.0177	-0.55374	0.079346	-0.011292	-0.014038
29.783	0.061188	-0.006561	-0.042877	-0.024414	0.15854	-0.43671	-0.20233	-0.019226	0.14511	0.010223	-0.00061	0.005798	0.012512	0.050964	0.009918	-0.011749	0.10361	0.085907	-0.085907	0.000305	-0.053253	-0.2475	-0.28336	-0.081482	-0.020294	-0.014954	0.49377	-0.010071	-0.087891	0.001373	-0.013733	0.00061
29.784	0.054474	-0.022888	-0.082703	0	0.03952	-0.20554	-0.15472	-0.025482	0.19852	0.000458	-0.010986	0.010071	0.11047	0.099182	0.016785	0.004425	0.1001	0.11047	-0.06073	-0.025177	-0.037537	-0.27023	-0.29373	-0.10971	-0.035858	0.11246	-0.029144	-0.011444	0.11276	-0.045624	-0.015259	-0.007172
29.785	0.027161	-0.037842	-0.011749	-0.001526	0.074463	0.10696	-0.043488	-0.012207	0.096283	0.047302	-0.010223	0.007629	0.079803	0.09201	-0.010376	-0.001221	0.07843	0.16312	-0.034027	-0.04364	0.000916	-0.34805	-0.32227	-0.088654	-0.020294	0.083618	-1.0794	-0.007324	0.55161	0.001984	-0.006104	-0.008392
29.786	0.001068	-0.065002	0.12589	-0.007019	0.13794	0.1329	0.091095	-0.010834	-0.075073	0.001526	0.009766	0.010681	-0.1268	0.059509	-0.006409	-0.005646	0.02533	0.10468	-0.023193	-0.014038	-0.019989	-0.22568	-0.36896	0.055389	0.012512	0.039825	-1.3786	-0.007782	0.95261	-0.099945	-0.011902	-0.012512
29.787	-0.012054	-0.053253	0.053711	-0.007782	0.057678	0.10178	0.087128	0.008698	-0.24155	0.011597	0.016937	0.00946	-0.11124	0.097809	0.053101	0.006561	-0.028992	0.041656	-0.038147	-0.002899	-0.02655	-0.1004	-0.35965	0.10162	0.00061	0.030212	-0.31448	-0.004425	-0.097809	0.031128	-0.007019	-0.006409
29.788	-0.01297	-0.045471	0.002441	0.008392	0.000153	0.17212	0.079803	0.010071	-0.28183	0.017395	0.012512	0.014496	0.040283	0.031586	0.022583	0.00824	-0.048828	0.014038	-0.14496	-0.026093	0.10819	-0.10101	-0.33493	0.078583	0.015564	0.012054	-0.11688	-0.002441	-0.4007	-0.042114	-0.016785	-0.006866
29.789	-0.018158	-0.019989	-0.02655	0.018005	-0.048523	0.24124	0.089722	0.000763	-0.25955	0.040436	-0.010529	0.01358	0.050659	0.011444	0.015717	-0.005798	-0.059967	0.066986	-0.11337	-0.074921	-0.001678	0.045776	-0.35965	0.067902	0.004272	0.010529	-0.23422	-0.000305	0.13229	-0.16312	-0.008392	-0.011597
29.79	-0.00885	-0.005493	-0.011139	0.004883	-0.12268	0.3508	0.12741	0.00473	-0.11826	0.041656	-0.007935	0.007935	-0.17777	0.075226	0.033569	-0.002747	-0.076752	0.037079	0.054016	-0.054626	-0.056763	0.12436	-0.39581	0.079651	0.00885	0.009155	-0.038757	-0.003357	1.2428	-0.19913	-0.005341	-0.017242
29.791	0.007629	-0.002594	0.07019	-0.004272	-0.14496	0.30014	0.15305	0.003967	-0.010071	0.033569	0.000153	0.014343	0.018158	0.049896	-0.021362	-0.016327	-0.048065	-0.034332	0.15976	-0.038605	0.1004	0.096893	-0.36407	0.053558	0.010529	0.003967	-0.028534	-0.003052	-0.24445	-0.16129	-0.011444	-0.015259
29.792	0.015564	-0.021362	0.059357	-0.003967	-0.06424	-0.058136	0.15121	0.008087	0.0737	0.018463	-0.005188	0.01236	0.060577	0.050201	-0.069733	-0.004272	-0.018311	-0.089569	0.049744	-0.03418	0.13763	-0.054321	-0.32715	-0.019684	-0.02594	0.005493	-0.075684	-0.005798	-0.32989	-0.053711	-0.013428	-0.029297
29.793	0.024414	0.034027	0.023956	0.002441	0.03067	-0.46417	0.070953	0.009613	0.079803	-0.020294	-0.0177	0.010223	0.10086	0.10895	-0.050659	0.002289	-0.023804	-0.049896	-0.020447	-0.062714	-0.026703	-0.17777	-0.3743	-0.000763	-0.022888	0.003815	-0.065155	-0.003204	0.15564	-0.020447	-0.00885	-0.026245
29.794	0.033722	0.041504	0.05127	-0.012207	0.058136	-0.51422	-0.029297	0.006714	0.04425	0.026093	0.014648	0.014496	-0.32928	0.091858	-0.024109	-0.011597	-0.028992	-0.077209	0.075836	-0.18112	-0.16647	-0.2269	-0.3215	0.032654	-0.036163	0.002747	-0.1503	-0.00473	0.2269	0.016174	-0.016174	-0.019531
29.795	0.032349	0.020294	-0.006409	-0.002899	0.019989	-0.19409	0.011597	0.010986	-0.00885	0.005035	0.004425	0.014343	-0.093231	0.11398	0.019226	-0.016174	-0.007629	-0.097809	0.13138	-0.18219	-0.033875	-0.23895	-0.34088	-0.031433	-0.026093	0.006256	-0.17624	-0.00412	0.1741	0.049438	-0.014343	-0.030823
29.796	0.020905	0.037689	-0.023193	-0.005341	0.056763	-0.010681	0.065765	0.012207	-0.006714	0.007782	-0.001373	0.014191	0.093231	0.1532	0.040283	-0.029449	-0.077667	-0.067596	0.10666	-0.16403	-0.015106	-0.14648	-0.41412	0.017242	-0.011292	0.01236	-0.16007	-0.004425	0.020905	0.088043	-0.013885	-0.020294
29.797	-0.002289	0.014648	-0.030365	0.012054	0.10941	-0.026093	0.06485	0.007324	0.009766	0.028687	0.010376	0.009613	-0.004578	0.093079	0.011597	-0.02655	-0.066376	-0.16159	0.002441	-0.059814	-0.10651	0.006256	-0.38605	-0.048523	-0.024567	0.021057	-0.16357	-0.006714	-0.42984	0.085449	-0.010071	-0.019531
29.798	-0.000305	0.044403	-0.023956	0.015411	0.080261	0.027161	0.018311	0.007324	0.10986	0.020142	0.006561	0.010681	0.003204	-0.020294	-0.015411	-0.029602	-0.032959	-0.12573	0.010986	0.090485	-0.24338	0.076904	-0.38147	-0.085449	-0.006256	0.03067	-0.1059	-0.004425	-0.64255	-0.011902	-0.010986	-0.023956
29.799	0.002747	0.063019	-0.019531	-0.011292	0.006866	-0.066528	0.019531	0.006104	0.15778	0.028839	0.003662	0.015411	-0.006714	-0.019379	-0.02533	-0.041199	-0.020142	-0.1619	0.011749	0.22522	-0.057068	0.093231	-0.39825	-0.058136	0.007629	0.030518	-0.021057	-0.008698	-0.35385	-0.27557	-0.008698	-0.019226
29.8	0.00946	0.096893	-0.03006	-0.005798	0.019073	-0.2243	0.029449	0.002899	0.12405	0.020752	-0.001678	0.023499	0.035858	0.014191	-0.023041	-0.036926	-0.007324	-0.14633	0.066071	0.24429	-0.21637	0.11658	-0.38788	0.009613	-0.002899	0.030823	0.023956	-0.010681	0.61279	-0.50217	-0.003052	-0.015564
29.801	0.005951	0.071106	0.021362	0.002289	0.039368	-0.19363	0.009613	0.001984	0.025482	0.022278	-0.002747	0.021515	0.028687	0.059662	-0.001526	-0.048981	-0.036011	-0.12817	0.084381	0.15305	-0.19073	0.088196	-0.41916	0.068054	0.010376	0.010529	-0.036163	-0.010529	0.4985	-0.34485	-0.004272	-0.023499
29.802	-0.001984	0.032959	0.033112	0.020447	0.014954	-0.084839	0.000458	0.000305	-0.054474	0.020447	0.011444	0.030975	-0.028992	0.093384	-0.001221	-0.058746	0.021973	-0.1532	0.073547	0.13428	0.071411	-0.047607	-0.40466	0.051575	-0.002289	0.000305	-0.036774	-0.009613	0.37247	0.014191	-0.002136	-0.032196
29.803	-0.049133	0.074463	-0.007324	0.019989	0.002136	0.016479	-0.05249	0.000305	-0.098724	0.014496	0.005493	0.032043	0	0.11063	0.010681	-0.039978	0.040436	-0.15564	0.017395	0.10727	0.095062	-0.19028	-0.35889	0.014191	-0.00824	-0.061798	0.014038	-0.011597	0.35812	0.11185	-0.007019	-0.026398
29.804	0.044861	0.076141	0.016479	0.002899	-0.046692	0.023956	-0.010223	-0.005035	-0.20142	-0.009155	-0.005493	0.03418	0.121	0.15366	-0.007019	-0.033264	0.05722	-0.20111	0.032196	0.06424	0.045471	-0.31937	-0.34561	0.040436	-0.011749	-0.10437	0.010223	-0.024261	0.4155	0.065918	-0.001068	-0.020447
29.805	0.066833	0.016479	0.023041	-0.012054	-0.020752	0.083466	0.046844	0.003815	-0.23682	0.010223	0.002899	0.035095	-0.014648	0.16373	-0.00824	-0.038605	0.081177	-0.17929	0.054932	0.004425	0.079193	-0.22812	-0.35507	-0.020599	0.00885	-0.056458	0.052643	-0.008698	0.30624	-0.17334	-0.001831	-0.031586
